<?xml version="1.0" ?><svg height="612" id="svg2212" version="1.0" width="612" xmlns="http://www.w3.org/2000/svg" xmlns:cc="http://creativecommons.org/ns#" xmlns:dc="http://purl.org/dc/elements/1.1/" xmlns:inkscape="http://www.inkscape.org/namespaces/inkscape" xmlns:rdf="http://www.w3.org/1999/02/22-rdf-syntax-ns#" xmlns:sodipodi="http://sodipodi.sourceforge.net/DTD/sodipodi-0.dtd" xmlns:svg="http://www.w3.org/2000/svg"><defs id="defs2214"><marker id="ArrowEnd" markerHeight="3" markerUnits="strokeWidth" markerWidth="4" orient="auto" refX="0" refY="5" viewBox="0 0 10 10"><path d="M 0,0 L 10,5 L 0,10 L 0,0 z" id="path2217"/></marker><marker id="ArrowStart" markerHeight="3" markerUnits="strokeWidth" markerWidth="4" orient="auto" refX="10" refY="5" viewBox="0 0 10 10"><path d="M 10,0 L 0,5 L 10,10 L 10,0 z" id="path2220"/></marker></defs><g id="g9172" transform="translate(-8.19e-2,-0.5853944)"><g id="g2222"><path d="M 82.4318,17.9239 C 41.0968,17.9239 17.8608,39.2949 17.8608,82.9599 L 17.8608,533.082 C 17.8608,573.925 38.7518,595.31 80.0528,595.31 L 532.077,595.31 C 573.38,595.31 594.303,574.99 594.303,533.082 L 594.303,82.9599 C 594.303,40.3599 573.38,17.9239 530.78,17.9239 C 530.78,17.9239 82.2888,17.7819 82.4318,17.9239 z" id="path2224" style="fill:#000000;stroke:#ffffff;stroke-width:3.40799999"/></g><g id="g2226"><path d="M 74.7058,437.447 L 154.756,437.447 L 154.756,355.973 L 234.29,355.973 L 234.29,273.947 L 315.079,273.947 L 315.079,193.448 L 395.32,193.448 L 395.32,113.474 L 514.458,113.474 L 514.458,154.278 L 435.256,154.278 L 435.256,234.555 L 354.924,234.555 L 354.924,315.964 L 274.756,315.964 L 274.756,396.947 L 194.256,396.947 L 194.256,478.619 L 74.7058,478.619 L 74.7058,437.447 z" id="path2228" style="fill:#ffffff;stroke:none"/><path d="M 341.463,477.033 L 412.256,477.033 C 431.756,477.033 432.506,447.033 412.256,447.033 L 375.969,447.033 L 444.981,378.021 C 460.28,362.723 438.641,340.584 422.388,356.836 L 354.403,425.01 L 354.403,389.094 C 354.506,369.594 324.256,368.844 324.21,389.094 L 324.21,459.447 C 324.21,469.947 331.256,477.033 341.463,477.033 z" id="path2230" style="fill:#ffffff;stroke:none"/></g></g></svg>